<svg width="260" height="40" viewBox="0 0 260 40" fill="none" xmlns="http://www.w3.org/2000/svg">
<path d="M81.75 20.5C81.75 28.375 75.2422 32.6953 69.4453 32.6953C62.1719 32.6953 57.25 26.8984 57.25 20.5C57.25 13.7188 62.7734 8.25 69.5 8.25C74.0938 8.25 78.6328 11.3125 78.6328 13.1172C78.6328 14.1016 77.8125 14.8672 76.8828 14.8672C75.1875 14.8672 74.3672 11.8047 69.5 11.8047C64.6875 11.8047 60.75 15.6328 60.75 20.5C60.75 22.4141 62.2812 29.1953 69.5 29.1953C73.8203 29.1953 77.375 26.1875 78.1406 22.25H70.8125C69.8281 22.25 69.0625 21.4844 69.0625 20.5C69.0625 19.5703 69.8281 18.8047 70.8125 18.8047H80C80.9297 18.75 81.75 19.5703 81.75 20.5ZM102.586 30.3438C102.969 31.2188 102.531 32.2578 101.656 32.6406C101.438 32.75 101.219 32.8047 101 32.8047C100.289 32.8047 99.6328 32.3672 99.3594 31.7109L97.6094 27.5547H86.8359L85.0859 31.7109C84.7031 32.5859 83.7188 33.0234 82.7891 32.6406C81.9141 32.2578 81.4766 31.2734 81.8594 30.3438L90.6094 9.34375C90.8828 8.6875 91.5391 8.30469 92.25 8.30469C92.9062 8.30469 93.5625 8.6875 93.8359 9.34375L102.586 30.3438ZM88.2578 24H96.1875L92.25 14.5938L88.2578 24ZM123.75 10.0547C123.75 10.9844 122.93 11.8047 122 11.8047H115V31.0547C115 31.9844 114.18 32.75 113.25 32.75C112.266 32.75 111.5 31.9844 111.5 31.0547V11.8047H104.5C103.516 11.8047 102.75 10.9844 102.75 10.0547C102.75 9.07031 103.516 8.30469 104.5 8.30469H122C122.93 8.30469 123.75 9.07031 123.75 10.0547ZM144.75 10.0547V31.0547C144.75 31.9844 143.93 32.8047 143 32.8047C142.016 32.8047 141.25 31.9844 141.25 31.0547V20.5547H127.25V31.0547C127.25 31.9844 126.43 32.8047 125.5 32.8047C124.516 32.8047 123.75 31.9844 123.75 31.0547V10.0547C123.75 9.07031 124.516 8.30469 125.5 8.30469C126.43 8.30469 127.25 9.07031 127.25 10.0547V17.0547H141.25V10.0547C141.25 9.07031 142.016 8.30469 143 8.30469C143.93 8.30469 144.75 9.07031 144.75 10.0547ZM162.25 31C162.25 31.9844 161.43 32.75 160.5 32.75H146.5C145.516 32.75 144.75 31.9844 144.75 31V10C144.75 9.07031 145.516 8.30469 146.5 8.30469H160.5C161.43 8.30469 162.25 9.07031 162.25 10.0547C162.25 10.9844 161.43 11.8047 160.5 11.8047H148.25V18.8047H157C157.93 18.8047 158.75 19.5703 158.75 20.5C158.75 21.4844 157.93 22.3047 157 22.3047H148.25V29.3047H160.5C161.43 29.25 162.25 30.0703 162.25 31ZM174.719 23.4531L179.422 30.0156C179.969 30.7812 179.75 31.875 178.984 32.4766C178.656 32.6953 178.328 32.8047 178 32.8047C177.453 32.8047 176.906 32.5312 176.523 32.0391L170.836 24H165.75V31C165.75 31.9844 164.93 32.75 164 32.75C163.016 32.75 162.25 31.9844 162.25 31V10C162.25 9.07031 163.016 8.25 164 8.25H171.875C176.195 8.25 179.75 11.8047 179.75 16.125C179.75 19.4609 177.672 22.3047 174.719 23.4531ZM165.75 11.8047V20.5H171.875C174.281 20.5 176.25 18.5859 176.25 16.1797C176.25 13.7188 174.281 11.8047 171.875 11.8047H165.75ZM197.25 31C197.25 31.9844 196.43 32.75 195.5 32.75H181.5C180.516 32.75 179.75 31.9844 179.75 31C179.75 30.0703 180.516 29.25 181.5 29.25H186.75V11.75H181.5C180.516 11.75 179.75 10.9844 179.75 10C179.75 9.07031 180.516 8.25 181.5 8.25H195.5C196.43 8.25 197.25 9.07031 197.25 10C197.25 10.9844 196.43 11.75 195.5 11.75H190.25V29.25H195.5C196.43 29.25 197.25 30.0703 197.25 31ZM218.25 10.0547V31.0547C218.25 31.7656 217.758 32.4219 217.047 32.6953C216.883 32.75 216.664 32.75 216.5 32.75C215.953 32.75 215.461 32.5312 215.133 32.1484L200.75 14.8672V31C200.75 31.9844 199.93 32.75 199 32.75C198.016 32.75 197.25 31.9844 197.25 31V10C197.25 9.28906 197.688 8.63281 198.398 8.35938C199.055 8.14062 199.82 8.35938 200.312 8.90625L214.75 26.1875V10C214.75 9.07031 215.516 8.25 216.5 8.25C217.43 8.25 218.25 9.07031 218.25 10.0547ZM242.75 20.5C242.75 28.375 236.242 32.6953 230.445 32.6953C223.172 32.6953 218.25 26.8984 218.25 20.5C218.25 13.7188 223.773 8.25 230.5 8.25C235.094 8.25 239.633 11.3125 239.633 13.1172C239.633 14.1016 238.812 14.8672 237.883 14.8672C236.188 14.8672 235.367 11.8047 230.5 11.8047C225.688 11.8047 221.75 15.6328 221.75 20.5C221.75 22.4141 223.281 29.1953 230.5 29.1953C234.82 29.1953 238.375 26.1875 239.141 22.25H231.812C230.828 22.25 230.062 21.4844 230.062 20.5C230.062 19.5703 230.828 18.8047 231.812 18.8047H241C241.93 18.75 242.75 19.5703 242.75 20.5Z" fill="url(#paint0_linear_2_4)"/>
<path d="M23.9844 18.0469L21.9531 20L27.9688 26.0156L23.9844 30L13.9844 20L23.9844 10L25.4688 11.5625L27.5 9.53125L23.9844 6.01562L10 20L23.9844 34.0625L31.9531 26.0156L23.9844 18.0469ZM35.9375 6.01562L50 20L35.9375 34.0625L32.5 30.5469L34.4531 28.5156L35.9375 30L45.9375 20L35.9375 10L31.9531 14.0625L37.9688 20L35.9375 22.0312L27.9688 14.0625L35.9375 6.01562Z" fill="url(#paint1_linear_2_4)"/>
<defs>
<linearGradient id="paint0_linear_2_4" x1="40" y1="20" x2="260" y2="20" gradientUnits="userSpaceOnUse">
<stop stop-color="#3462FF"/>
<stop offset="1" stop-color="#C025FF"/>
</linearGradient>
<linearGradient id="paint1_linear_2_4" x1="0" y1="20" x2="60" y2="20" gradientUnits="userSpaceOnUse">
<stop stop-color="#3462FF"/>
<stop offset="1" stop-color="#C025FF"/>
</linearGradient>
</defs>
</svg>
